<svg width="30" height="30" viewBox="0 0 30 30" fill="none" xmlns="http://www.w3.org/2000/svg">
<g clip-path="url(#clip0_2287_628)">
<mask id="mask0_2287_628" style="mask-type:alpha" maskUnits="userSpaceOnUse" x="-2" y="-1" width="33" height="32">
<rect x="-0.0339355" y="-0.444031" width="0.870084" height="0.870084" fill="#D9D9D9"/>
<rect x="1.27124" y="-0.444031" width="0.870084" height="0.870084" fill="#D9D9D9"/>
<rect x="2.57617" y="-0.444" width="0.870084" height="0.870084" fill="#D9D9D9"/>
<rect x="3.8811" y="-0.444031" width="0.870084" height="0.870084" fill="#D9D9D9"/>
<rect x="5.18628" y="-0.444031" width="0.870084" height="0.870084" fill="#D9D9D9"/>
<rect x="6.49146" y="-0.444031" width="0.870084" height="0.870084" fill="#D9D9D9"/>
<rect x="7.79663" y="-0.444031" width="0.870084" height="0.870084" fill="#D9D9D9"/>
<rect x="9.10205" y="-0.444031" width="0.870084" height="0.870084" fill="#D9D9D9"/>
<rect x="10.4072" y="-0.444" width="0.870084" height="0.870084" fill="#D9D9D9"/>
<rect x="11.7119" y="-0.444031" width="0.870084" height="0.870084" fill="#D9D9D9"/>
<rect x="13.0176" y="-0.444031" width="0.870084" height="0.870084" fill="#D9D9D9"/>
<rect x="14.3223" y="-0.444031" width="0.870084" height="0.870084" fill="#D9D9D9"/>
<rect x="15.6274" y="-0.444031" width="0.870084" height="0.870084" fill="#D9D9D9"/>
<rect x="16.9326" y="-0.444031" width="0.870084" height="0.870084" fill="#D9D9D9"/>
<rect x="18.2378" y="-0.444" width="0.870084" height="0.870084" fill="#D9D9D9"/>
<rect x="19.5425" y="-0.444031" width="0.870084" height="0.870084" fill="#D9D9D9"/>
<rect x="20.8477" y="-0.444031" width="0.870084" height="0.870084" fill="#D9D9D9"/>
<rect x="22.1528" y="-0.444031" width="0.870084" height="0.870084" fill="#D9D9D9"/>
<rect x="23.458" y="-0.444031" width="0.870084" height="0.870084" fill="#D9D9D9"/>
<rect x="24.7632" y="-0.444031" width="0.870084" height="0.870084" fill="#D9D9D9"/>
<rect x="26.0684" y="-0.444" width="0.870084" height="0.870084" fill="#D9D9D9"/>
<rect x="27.3735" y="-0.444031" width="0.870084" height="0.870084" fill="#D9D9D9"/>
<rect x="28.6787" y="-0.444031" width="0.870084" height="0.870084" fill="#D9D9D9"/>
<rect x="-0.0339355" y="0.861145" width="0.870084" height="0.870084" fill="#D9D9D9"/>
<rect x="1.27124" y="0.861145" width="0.870084" height="0.870084" fill="#D9D9D9"/>
<rect x="2.57617" y="0.861115" width="0.870084" height="0.870084" fill="#D9D9D9"/>
<rect x="3.8811" y="0.861145" width="0.870084" height="0.870084" fill="#D9D9D9"/>
<rect x="5.18628" y="0.861145" width="0.870084" height="0.870084" fill="#D9D9D9"/>
<rect x="6.49146" y="0.861145" width="0.870084" height="0.870084" fill="#D9D9D9"/>
<rect x="7.79663" y="0.860992" width="0.870084" height="0.870084" fill="#D9D9D9"/>
<rect x="9.10205" y="0.861145" width="0.870084" height="0.870084" fill="#D9D9D9"/>
<rect x="10.4072" y="0.861115" width="0.870084" height="0.870084" fill="#D9D9D9"/>
<rect x="11.7119" y="0.861145" width="0.870084" height="0.870084" fill="#D9D9D9"/>
<rect x="13.0176" y="0.861145" width="0.870084" height="0.870084" fill="#D9D9D9"/>
<rect x="14.3223" y="0.861145" width="0.870084" height="0.870084" fill="#D9D9D9"/>
<rect x="15.6274" y="0.861145" width="0.870084" height="0.870084" fill="#D9D9D9"/>
<rect x="16.9326" y="0.861145" width="0.870084" height="0.870084" fill="#D9D9D9"/>
<rect x="18.2378" y="0.861115" width="0.870084" height="0.870084" fill="#D9D9D9"/>
<rect x="19.5425" y="0.861145" width="0.870084" height="0.870084" fill="#D9D9D9"/>
<rect x="20.8477" y="0.861145" width="0.870084" height="0.870084" fill="#D9D9D9"/>
<rect x="22.1528" y="0.861145" width="0.870084" height="0.870084" fill="#D9D9D9"/>
<rect x="23.458" y="0.861145" width="0.870084" height="0.870084" fill="#D9D9D9"/>
<rect x="24.7632" y="0.861145" width="0.870084" height="0.870084" fill="#D9D9D9"/>
<rect x="26.0684" y="0.861115" width="0.870084" height="0.870084" fill="#D9D9D9"/>
<rect x="27.3735" y="0.861145" width="0.870084" height="0.870084" fill="#D9D9D9"/>
<rect x="28.6787" y="0.861145" width="0.870084" height="0.870084" fill="#D9D9D9"/>
<rect x="-0.0339355" y="2.16617" width="0.870084" height="0.870084" fill="#D9D9D9"/>
<rect x="1.27124" y="2.16617" width="0.870084" height="0.870084" fill="#D9D9D9"/>
<rect x="2.57617" y="2.16626" width="0.870084" height="0.870084" fill="#D9D9D9"/>
<rect x="3.8811" y="2.16617" width="0.870084" height="0.870084" fill="#D9D9D9"/>
<rect x="5.18628" y="2.16617" width="0.870084" height="0.870084" fill="#D9D9D9"/>
<rect x="6.49146" y="2.16617" width="0.870084" height="0.870084" fill="#D9D9D9"/>
<rect x="7.79663" y="2.16617" width="0.870084" height="0.870084" fill="#D9D9D9"/>
<rect x="9.10205" y="2.16617" width="0.870084" height="0.870084" fill="#D9D9D9"/>
<rect x="10.4072" y="2.16626" width="0.870084" height="0.870084" fill="#D9D9D9"/>
<rect x="11.7119" y="2.16617" width="0.870084" height="0.870084" fill="#D9D9D9"/>
<rect x="13.0176" y="2.16605" width="0.870084" height="0.870084" fill="#D9D9D9"/>
<rect x="14.3223" y="2.16617" width="0.870084" height="0.870084" fill="#D9D9D9"/>
<rect x="15.6274" y="2.16617" width="0.870084" height="0.870084" fill="#D9D9D9"/>
<rect x="16.9326" y="2.16617" width="0.870084" height="0.870084" fill="#D9D9D9"/>
<rect x="18.2378" y="2.16626" width="0.870084" height="0.870084" fill="#D9D9D9"/>
<rect x="19.5425" y="2.16605" width="0.870084" height="0.870084" fill="#D9D9D9"/>
<rect x="20.8477" y="2.16617" width="0.870084" height="0.870084" fill="#D9D9D9"/>
<rect x="22.1528" y="2.16617" width="0.870084" height="0.870084" fill="#D9D9D9"/>
<rect x="23.458" y="2.16617" width="0.870084" height="0.870084" fill="#D9D9D9"/>
<rect x="24.7632" y="2.16617" width="0.870084" height="0.870084" fill="#D9D9D9"/>
<rect x="26.0684" y="2.16626" width="0.870084" height="0.870084" fill="#D9D9D9"/>
<rect x="27.3735" y="2.16617" width="0.870084" height="0.870084" fill="#D9D9D9"/>
<rect x="28.6787" y="2.16617" width="0.870084" height="0.870084" fill="#D9D9D9"/>
<rect x="-0.0339355" y="3.47134" width="0.870084" height="0.870084" fill="#D9D9D9"/>
<rect x="1.27124" y="3.47134" width="0.870084" height="0.870084" fill="#D9D9D9"/>
<rect x="2.57617" y="3.47137" width="0.870084" height="0.870084" fill="#D9D9D9"/>
<rect x="3.8811" y="3.47134" width="0.870084" height="0.870084" fill="#D9D9D9"/>
<rect x="5.18628" y="3.47134" width="0.870084" height="0.870084" fill="#D9D9D9"/>
<rect x="6.49146" y="3.47134" width="0.870084" height="0.870084" fill="#D9D9D9"/>
<rect x="7.79663" y="3.47134" width="0.870084" height="0.870084" fill="#D9D9D9"/>
<rect x="9.10205" y="3.47134" width="0.870084" height="0.870084" fill="#D9D9D9"/>
<rect x="10.4072" y="3.47137" width="0.870084" height="0.870084" fill="#D9D9D9"/>
<rect x="11.7119" y="3.47134" width="0.870084" height="0.870084" fill="#D9D9D9"/>
<rect x="13.0176" y="3.47122" width="0.870084" height="0.870084" fill="#D9D9D9"/>
<rect x="14.3223" y="3.47134" width="0.870084" height="0.870084" fill="#D9D9D9"/>
<rect x="15.6274" y="3.47134" width="0.870084" height="0.870084" fill="#D9D9D9"/>
<rect x="16.9326" y="3.47134" width="0.870084" height="0.870084" fill="#D9D9D9"/>
<rect x="18.2378" y="3.47137" width="0.870084" height="0.870084" fill="#D9D9D9"/>
<rect x="19.5425" y="3.47122" width="0.870084" height="0.870084" fill="#D9D9D9"/>
<rect x="20.8477" y="3.47134" width="0.870084" height="0.870084" fill="#D9D9D9"/>
<rect x="22.1528" y="3.47134" width="0.870084" height="0.870084" fill="#D9D9D9"/>
<rect x="23.458" y="3.47134" width="0.870084" height="0.870084" fill="#D9D9D9"/>
<rect x="24.7632" y="3.47134" width="0.870084" height="0.870084" fill="#D9D9D9"/>
<rect x="26.0684" y="3.47137" width="0.870084" height="0.870084" fill="#D9D9D9"/>
<rect x="27.3735" y="3.47134" width="0.870084" height="0.870084" fill="#D9D9D9"/>
<rect x="28.6787" y="3.47134" width="0.870084" height="0.870084" fill="#D9D9D9"/>
<rect x="-0.0339355" y="4.77652" width="0.870084" height="0.870084" fill="#D9D9D9"/>
<rect x="1.27124" y="4.77652" width="0.870084" height="0.870084" fill="#D9D9D9"/>
<rect x="2.57617" y="4.77652" width="0.870084" height="0.870084" fill="#D9D9D9"/>
<rect x="3.8811" y="4.77652" width="0.870084" height="0.870084" fill="#D9D9D9"/>
<rect x="5.18628" y="4.77652" width="0.870084" height="0.870084" fill="#D9D9D9"/>
<rect x="6.49146" y="4.77652" width="0.870084" height="0.870084" fill="#D9D9D9"/>
<rect x="7.79663" y="4.77652" width="0.870084" height="0.870084" fill="#D9D9D9"/>
<rect x="9.10205" y="4.77652" width="0.870084" height="0.870084" fill="#D9D9D9"/>
<rect x="10.4072" y="4.77652" width="0.870084" height="0.870084" fill="#D9D9D9"/>
<rect x="11.7119" y="4.77652" width="0.870084" height="0.870084" fill="#D9D9D9"/>
<rect x="13.0176" y="4.77652" width="0.870084" height="0.870084" fill="#D9D9D9"/>
<rect x="14.3223" y="4.77652" width="0.870084" height="0.870084" fill="#D9D9D9"/>
<rect x="15.6274" y="4.77652" width="0.870084" height="0.870084" fill="#D9D9D9"/>
<rect x="16.9326" y="4.77652" width="0.870084" height="0.870084" fill="#D9D9D9"/>
<rect x="18.2378" y="4.77652" width="0.870084" height="0.870084" fill="#D9D9D9"/>
<rect x="19.5425" y="4.77652" width="0.870084" height="0.870084" fill="#D9D9D9"/>
<rect x="20.8477" y="4.77652" width="0.870084" height="0.870084" fill="#D9D9D9"/>
<rect x="22.1528" y="4.77652" width="0.870084" height="0.870084" fill="#D9D9D9"/>
<rect x="23.458" y="4.77652" width="0.870084" height="0.870084" fill="#D9D9D9"/>
<rect x="24.7632" y="4.77652" width="0.870084" height="0.870084" fill="#D9D9D9"/>
<rect x="26.0684" y="4.77652" width="0.870084" height="0.870084" fill="#D9D9D9"/>
<rect x="27.3735" y="4.77652" width="0.870084" height="0.870084" fill="#D9D9D9"/>
<rect x="28.6787" y="4.77652" width="0.870084" height="0.870084" fill="#D9D9D9"/>
<rect x="-0.0339355" y="6.08157" width="0.870084" height="0.870084" fill="#D9D9D9"/>
<rect x="1.27124" y="6.08157" width="0.870084" height="0.870084" fill="#D9D9D9"/>
<rect x="2.57617" y="6.08163" width="0.870084" height="0.870084" fill="#D9D9D9"/>
<rect x="3.8811" y="6.08157" width="0.870084" height="0.870084" fill="#D9D9D9"/>
<rect x="5.18628" y="6.08157" width="0.870084" height="0.870084" fill="#D9D9D9"/>
<rect x="6.49146" y="6.08157" width="0.870084" height="0.870084" fill="#D9D9D9"/>
<rect x="7.79663" y="6.08157" width="0.870084" height="0.870084" fill="#D9D9D9"/>
<rect x="9.10205" y="6.08157" width="0.870084" height="0.870084" fill="#D9D9D9"/>
<rect x="10.4072" y="6.08163" width="0.870084" height="0.870084" fill="#D9D9D9"/>
<rect x="11.7119" y="6.08157" width="0.870084" height="0.870084" fill="#D9D9D9"/>
<rect x="13.0176" y="6.0817" width="0.870084" height="0.870084" fill="#D9D9D9"/>
<rect x="14.3223" y="6.08157" width="0.870084" height="0.870084" fill="#D9D9D9"/>
<rect x="15.6274" y="6.08157" width="0.870084" height="0.870084" fill="#D9D9D9"/>
<rect x="16.9326" y="6.08157" width="0.870084" height="0.870084" fill="#D9D9D9"/>
<rect x="18.2378" y="6.08163" width="0.870084" height="0.870084" fill="#D9D9D9"/>
<rect x="19.5425" y="6.0817" width="0.870084" height="0.870084" fill="#D9D9D9"/>
<rect x="20.8477" y="6.08157" width="0.870084" height="0.870084" fill="#D9D9D9"/>
<rect x="22.1528" y="6.08157" width="0.870084" height="0.870084" fill="#D9D9D9"/>
<rect x="23.458" y="6.08157" width="0.870084" height="0.870084" fill="#D9D9D9"/>
<rect x="24.7632" y="6.08157" width="0.870084" height="0.870084" fill="#D9D9D9"/>
<rect x="26.0684" y="6.08163" width="0.870084" height="0.870084" fill="#D9D9D9"/>
<rect x="27.3735" y="6.08157" width="0.870084" height="0.870084" fill="#D9D9D9"/>
<rect x="28.6787" y="6.08157" width="0.870084" height="0.870084" fill="#D9D9D9"/>
<rect x="-0.0339355" y="7.38675" width="0.870084" height="0.870084" fill="#D9D9D9"/>
<rect x="1.27124" y="7.38675" width="0.870084" height="0.870084" fill="#D9D9D9"/>
<rect x="2.57617" y="7.38675" width="0.870084" height="0.870084" fill="#D9D9D9"/>
<rect x="3.8811" y="7.38675" width="0.870084" height="0.870084" fill="#D9D9D9"/>
<rect x="5.18628" y="7.38675" width="0.870084" height="0.870084" fill="#D9D9D9"/>
<rect x="6.49146" y="7.38675" width="0.870084" height="0.870084" fill="#D9D9D9"/>
<rect x="7.79663" y="7.38675" width="0.870084" height="0.870084" fill="#D9D9D9"/>
<rect x="9.10205" y="7.38675" width="0.870084" height="0.870084" fill="#D9D9D9"/>
<rect x="10.4072" y="7.38675" width="0.870084" height="0.870084" fill="#D9D9D9"/>
<rect x="11.7119" y="7.38675" width="0.870084" height="0.870084" fill="#D9D9D9"/>
<rect x="13.0176" y="7.3866" width="0.870084" height="0.870084" fill="#D9D9D9"/>
<rect x="14.3223" y="7.38675" width="0.870084" height="0.870084" fill="#D9D9D9"/>
<rect x="15.6274" y="7.38675" width="0.870084" height="0.870084" fill="#D9D9D9"/>
<rect x="16.9326" y="7.38675" width="0.870084" height="0.870084" fill="#D9D9D9"/>
<rect x="18.2378" y="7.38675" width="0.870084" height="0.870084" fill="#D9D9D9"/>
<rect x="19.5425" y="7.3866" width="0.870084" height="0.870084" fill="#D9D9D9"/>
<rect x="20.8477" y="7.38675" width="0.870084" height="0.870084" fill="#D9D9D9"/>
<rect x="22.1528" y="7.38675" width="0.870084" height="0.870084" fill="#D9D9D9"/>
<rect x="23.458" y="7.38675" width="0.870084" height="0.870084" fill="#D9D9D9"/>
<rect x="24.7632" y="7.38675" width="0.870084" height="0.870084" fill="#D9D9D9"/>
<rect x="26.0684" y="7.38675" width="0.870084" height="0.870084" fill="#D9D9D9"/>
<rect x="27.3735" y="7.38675" width="0.870084" height="0.870084" fill="#D9D9D9"/>
<rect x="28.6787" y="7.38675" width="0.870084" height="0.870084" fill="#D9D9D9"/>
<rect x="-0.0339355" y="8.69193" width="0.870084" height="0.870084" fill="#D9D9D9"/>
<rect x="1.27124" y="8.69193" width="0.870084" height="0.870084" fill="#D9D9D9"/>
<rect x="2.57617" y="8.69189" width="0.870084" height="0.870084" fill="#D9D9D9"/>
<rect x="3.8811" y="8.69193" width="0.870084" height="0.870084" fill="#D9D9D9"/>
<rect x="5.18628" y="8.69193" width="0.870084" height="0.870084" fill="#D9D9D9"/>
<rect x="6.49146" y="8.69193" width="0.870084" height="0.870084" fill="#D9D9D9"/>
<rect x="7.79663" y="8.69193" width="0.870084" height="0.870084" fill="#D9D9D9"/>
<rect x="9.10205" y="8.69193" width="0.870084" height="0.870084" fill="#D9D9D9"/>
<rect x="10.4072" y="8.69189" width="0.870084" height="0.870084" fill="#D9D9D9"/>
<rect x="11.7119" y="8.69193" width="0.870084" height="0.870084" fill="#D9D9D9"/>
<rect x="13.0176" y="8.69177" width="0.870084" height="0.870084" fill="#D9D9D9"/>
<rect x="14.3223" y="8.69193" width="0.870084" height="0.870084" fill="#D9D9D9"/>
<rect x="15.6274" y="8.69193" width="0.870084" height="0.870084" fill="#D9D9D9"/>
<rect x="16.9326" y="8.69193" width="0.870084" height="0.870084" fill="#D9D9D9"/>
<rect x="18.2378" y="8.69189" width="0.870084" height="0.870084" fill="#D9D9D9"/>
<rect x="19.5425" y="8.69177" width="0.870084" height="0.870084" fill="#D9D9D9"/>
<rect x="20.8477" y="8.69193" width="0.870084" height="0.870084" fill="#D9D9D9"/>
<rect x="22.1528" y="8.69193" width="0.870084" height="0.870084" fill="#D9D9D9"/>
<rect x="23.458" y="8.69193" width="0.870084" height="0.870084" fill="#D9D9D9"/>
<rect x="24.7632" y="8.69193" width="0.870084" height="0.870084" fill="#D9D9D9"/>
<rect x="26.0684" y="8.69189" width="0.870084" height="0.870084" fill="#D9D9D9"/>
<rect x="27.3735" y="8.69193" width="0.870084" height="0.870084" fill="#D9D9D9"/>
<rect x="28.6787" y="8.69193" width="0.870084" height="0.870084" fill="#D9D9D9"/>
<rect x="-0.0339355" y="9.99695" width="0.870084" height="0.870084" fill="#D9D9D9"/>
<rect x="1.27124" y="9.99695" width="0.870084" height="0.870084" fill="#D9D9D9"/>
<rect x="2.57617" y="9.99701" width="0.870084" height="0.870084" fill="#D9D9D9"/>
<rect x="3.8811" y="9.99695" width="0.870084" height="0.870084" fill="#D9D9D9"/>
<rect x="5.18628" y="9.99695" width="0.870084" height="0.870084" fill="#D9D9D9"/>
<rect x="6.49146" y="9.99695" width="0.870084" height="0.870084" fill="#D9D9D9"/>
<rect x="7.79663" y="9.99695" width="0.870084" height="0.870084" fill="#D9D9D9"/>
<rect x="9.10205" y="9.99695" width="0.870084" height="0.870084" fill="#D9D9D9"/>
<rect x="10.4072" y="9.99701" width="0.870084" height="0.870084" fill="#D9D9D9"/>
<rect x="11.7119" y="9.99695" width="0.870084" height="0.870084" fill="#D9D9D9"/>
<rect x="13.0176" y="9.9971" width="0.870084" height="0.870084" fill="#D9D9D9"/>
<rect x="14.3223" y="9.99695" width="0.870084" height="0.870084" fill="#D9D9D9"/>
<rect x="15.6274" y="9.99695" width="0.870084" height="0.870084" fill="#D9D9D9"/>
<rect x="16.9326" y="9.99695" width="0.870084" height="0.870084" fill="#D9D9D9"/>
<rect x="18.2378" y="9.99701" width="0.870084" height="0.870084" fill="#D9D9D9"/>
<rect x="19.5425" y="9.9971" width="0.870084" height="0.870084" fill="#D9D9D9"/>
<rect x="20.8477" y="9.99695" width="0.870084" height="0.870084" fill="#D9D9D9"/>
<rect x="22.1528" y="9.99695" width="0.870084" height="0.870084" fill="#D9D9D9"/>
<rect x="23.458" y="9.99695" width="0.870084" height="0.870084" fill="#D9D9D9"/>
<rect x="24.7632" y="9.99695" width="0.870084" height="0.870084" fill="#D9D9D9"/>
<rect x="26.0684" y="9.99701" width="0.870084" height="0.870084" fill="#D9D9D9"/>
<rect x="27.3735" y="9.99695" width="0.870084" height="0.870084" fill="#D9D9D9"/>
<rect x="28.6787" y="9.99695" width="0.870084" height="0.870084" fill="#D9D9D9"/>
<rect x="-0.0339355" y="11.3021" width="0.870084" height="0.870084" fill="#D9D9D9"/>
<rect x="1.27124" y="11.3021" width="0.870084" height="0.870084" fill="#D9D9D9"/>
<rect x="2.57617" y="11.3022" width="0.870084" height="0.870084" fill="#D9D9D9"/>
<rect x="3.8811" y="11.3021" width="0.870084" height="0.870084" fill="#D9D9D9"/>
<rect x="5.18628" y="11.3021" width="0.870084" height="0.870084" fill="#D9D9D9"/>
<rect x="6.49146" y="11.3021" width="0.870084" height="0.870084" fill="#D9D9D9"/>
<rect x="7.79663" y="11.3021" width="0.870084" height="0.870084" fill="#D9D9D9"/>
<rect x="9.10205" y="11.3021" width="0.870084" height="0.870084" fill="#D9D9D9"/>
<rect x="10.4072" y="11.3022" width="0.870084" height="0.870084" fill="#D9D9D9"/>
<rect x="11.7119" y="11.3021" width="0.870084" height="0.870084" fill="#D9D9D9"/>
<rect x="13.0176" y="11.3023" width="0.870084" height="0.870084" fill="#D9D9D9"/>
<rect x="14.3223" y="11.3021" width="0.870084" height="0.870084" fill="#D9D9D9"/>
<rect x="15.6274" y="11.3021" width="0.870084" height="0.870084" fill="#D9D9D9"/>
<rect x="16.9326" y="11.3021" width="0.870084" height="0.870084" fill="#D9D9D9"/>
<rect x="18.2378" y="11.3022" width="0.870084" height="0.870084" fill="#D9D9D9"/>
<rect x="19.5425" y="11.3023" width="0.870084" height="0.870084" fill="#D9D9D9"/>
<rect x="20.8477" y="11.3021" width="0.870084" height="0.870084" fill="#D9D9D9"/>
<rect x="22.1528" y="11.3021" width="0.870084" height="0.870084" fill="#D9D9D9"/>
<rect x="23.458" y="11.3021" width="0.870084" height="0.870084" fill="#D9D9D9"/>
<rect x="24.7632" y="11.3021" width="0.870084" height="0.870084" fill="#D9D9D9"/>
<rect x="26.0684" y="11.3022" width="0.870084" height="0.870084" fill="#D9D9D9"/>
<rect x="27.3735" y="11.3021" width="0.870084" height="0.870084" fill="#D9D9D9"/>
<rect x="28.6787" y="11.3021" width="0.870084" height="0.870084" fill="#D9D9D9"/>
<rect x="-0.0339355" y="12.6073" width="0.870084" height="0.870084" fill="#D9D9D9"/>
<rect x="1.27124" y="12.6073" width="0.870084" height="0.870084" fill="#D9D9D9"/>
<rect x="2.57617" y="12.6073" width="0.870084" height="0.870084" fill="#D9D9D9"/>
<rect x="3.8811" y="12.6073" width="0.870084" height="0.870084" fill="#D9D9D9"/>
<rect x="5.18628" y="12.6073" width="0.870084" height="0.870084" fill="#D9D9D9"/>
<rect x="6.49146" y="12.6073" width="0.870084" height="0.870084" fill="#D9D9D9"/>
<rect x="7.79663" y="12.6073" width="0.870084" height="0.870084" fill="#D9D9D9"/>
<rect x="9.10205" y="12.6073" width="0.870084" height="0.870084" fill="#D9D9D9"/>
<rect x="10.4072" y="12.6073" width="0.870084" height="0.870084" fill="#D9D9D9"/>
<rect x="11.7119" y="12.6073" width="0.870084" height="0.870084" fill="#D9D9D9"/>
<rect x="13.0176" y="12.6071" width="0.870084" height="0.870084" fill="#D9D9D9"/>
<rect x="14.3223" y="12.6073" width="0.870084" height="0.870084" fill="#D9D9D9"/>
<rect x="15.6274" y="12.6073" width="0.870084" height="0.870084" fill="#D9D9D9"/>
<rect x="16.9326" y="12.6073" width="0.870084" height="0.870084" fill="#D9D9D9"/>
<rect x="18.2378" y="12.6073" width="0.870084" height="0.870084" fill="#D9D9D9"/>
<rect x="19.5425" y="12.6071" width="0.870084" height="0.870084" fill="#D9D9D9"/>
<rect x="20.8477" y="12.6073" width="0.870084" height="0.870084" fill="#D9D9D9"/>
<rect x="22.1528" y="12.6073" width="0.870084" height="0.870084" fill="#D9D9D9"/>
<rect x="23.458" y="12.6073" width="0.870084" height="0.870084" fill="#D9D9D9"/>
<rect x="24.7632" y="12.6073" width="0.870084" height="0.870084" fill="#D9D9D9"/>
<rect x="26.0684" y="12.6073" width="0.870084" height="0.870084" fill="#D9D9D9"/>
<rect x="27.3735" y="12.6073" width="0.870084" height="0.870084" fill="#D9D9D9"/>
<rect x="28.6787" y="12.6073" width="0.870084" height="0.870084" fill="#D9D9D9"/>
<rect x="-0.0339355" y="13.9123" width="0.870084" height="0.870084" fill="#D9D9D9"/>
<rect x="1.27124" y="13.9123" width="0.870084" height="0.870084" fill="#D9D9D9"/>
<rect x="2.57617" y="13.9124" width="0.870084" height="0.870084" fill="#D9D9D9"/>
<rect x="3.8811" y="13.9123" width="0.870084" height="0.870084" fill="#D9D9D9"/>
<rect x="5.18628" y="13.9123" width="0.870084" height="0.870084" fill="#D9D9D9"/>
<rect x="6.49146" y="13.9123" width="0.870084" height="0.870084" fill="#D9D9D9"/>
<rect x="7.79663" y="13.9123" width="0.870084" height="0.870084" fill="#D9D9D9"/>
<rect x="9.10205" y="13.9123" width="0.870084" height="0.870084" fill="#D9D9D9"/>
<rect x="10.4072" y="13.9124" width="0.870084" height="0.870084" fill="#D9D9D9"/>
<rect x="11.7119" y="13.9123" width="0.870084" height="0.870084" fill="#D9D9D9"/>
<rect x="13.0176" y="13.9123" width="0.870084" height="0.870084" fill="#D9D9D9"/>
<rect x="14.3223" y="13.9123" width="0.870084" height="0.870084" fill="#D9D9D9"/>
<rect x="15.6274" y="13.9123" width="0.870084" height="0.870084" fill="#D9D9D9"/>
<rect x="16.9326" y="13.9123" width="0.870084" height="0.870084" fill="#D9D9D9"/>
<rect x="18.2378" y="13.9124" width="0.870084" height="0.870084" fill="#D9D9D9"/>
<rect x="19.5425" y="13.9123" width="0.870084" height="0.870084" fill="#D9D9D9"/>
<rect x="20.8477" y="13.9123" width="0.870084" height="0.870084" fill="#D9D9D9"/>
<rect x="22.1528" y="13.9123" width="0.870084" height="0.870084" fill="#D9D9D9"/>
<rect x="23.458" y="13.9123" width="0.870084" height="0.870084" fill="#D9D9D9"/>
<rect x="24.7632" y="13.9123" width="0.870084" height="0.870084" fill="#D9D9D9"/>
<rect x="26.0684" y="13.9124" width="0.870084" height="0.870084" fill="#D9D9D9"/>
<rect x="27.3735" y="13.9123" width="0.870084" height="0.870084" fill="#D9D9D9"/>
<rect x="28.6787" y="13.9123" width="0.870084" height="0.870084" fill="#D9D9D9"/>
<rect x="-0.0339355" y="15.2175" width="0.870084" height="0.870084" fill="#D9D9D9"/>
<rect x="1.27124" y="15.2175" width="0.870084" height="0.870084" fill="#D9D9D9"/>
<rect x="2.57617" y="15.2175" width="0.870084" height="0.870084" fill="#D9D9D9"/>
<rect x="3.8811" y="15.2175" width="0.870084" height="0.870084" fill="#D9D9D9"/>
<rect x="5.18628" y="15.2175" width="0.870084" height="0.870084" fill="#D9D9D9"/>
<rect x="6.49146" y="15.2175" width="0.870084" height="0.870084" fill="#D9D9D9"/>
<rect x="7.79663" y="15.2175" width="0.870084" height="0.870084" fill="#D9D9D9"/>
<rect x="9.10205" y="15.2175" width="0.870084" height="0.870084" fill="#D9D9D9"/>
<rect x="10.4072" y="15.2175" width="0.870084" height="0.870084" fill="#D9D9D9"/>
<rect x="11.7119" y="15.2175" width="0.870084" height="0.870084" fill="#D9D9D9"/>
<rect x="13.0176" y="15.2177" width="0.870084" height="0.870084" fill="#D9D9D9"/>
<rect x="14.3223" y="15.2175" width="0.870084" height="0.870084" fill="#D9D9D9"/>
<rect x="15.6274" y="15.2175" width="0.870084" height="0.870084" fill="#D9D9D9"/>
<rect x="16.9326" y="15.2175" width="0.870084" height="0.870084" fill="#D9D9D9"/>
<rect x="18.2378" y="15.2175" width="0.870084" height="0.870084" fill="#D9D9D9"/>
<rect x="19.5425" y="15.2177" width="0.870084" height="0.870084" fill="#D9D9D9"/>
<rect x="20.8477" y="15.2175" width="0.870084" height="0.870084" fill="#D9D9D9"/>
<rect x="22.1528" y="15.2175" width="0.870084" height="0.870084" fill="#D9D9D9"/>
<rect x="23.458" y="15.2175" width="0.870084" height="0.870084" fill="#D9D9D9"/>
<rect x="24.7632" y="15.2175" width="0.870084" height="0.870084" fill="#D9D9D9"/>
<rect x="26.0684" y="15.2175" width="0.870084" height="0.870084" fill="#D9D9D9"/>
<rect x="27.3735" y="15.2175" width="0.870084" height="0.870084" fill="#D9D9D9"/>
<rect x="28.6787" y="15.2175" width="0.870084" height="0.870084" fill="#D9D9D9"/>
<rect x="-0.0339355" y="16.5227" width="0.870084" height="0.870084" fill="#D9D9D9"/>
<rect x="1.27124" y="16.5227" width="0.870084" height="0.870084" fill="#D9D9D9"/>
<rect x="2.57617" y="16.5226" width="0.870084" height="0.870084" fill="#D9D9D9"/>
<rect x="3.8811" y="16.5227" width="0.870084" height="0.870084" fill="#D9D9D9"/>
<rect x="5.18628" y="16.5227" width="0.870084" height="0.870084" fill="#D9D9D9"/>
<rect x="6.49146" y="16.5227" width="0.870084" height="0.870084" fill="#D9D9D9"/>
<rect x="7.79663" y="16.5225" width="0.870084" height="0.870084" fill="#D9D9D9"/>
<rect x="9.10205" y="16.5227" width="0.870084" height="0.870084" fill="#D9D9D9"/>
<rect x="10.4072" y="16.5226" width="0.870084" height="0.870084" fill="#D9D9D9"/>
<rect x="11.7119" y="16.5227" width="0.870084" height="0.870084" fill="#D9D9D9"/>
<rect x="13.0176" y="16.5228" width="0.870084" height="0.870084" fill="#D9D9D9"/>
<rect x="14.3223" y="16.5227" width="0.870084" height="0.870084" fill="#D9D9D9"/>
<rect x="15.6274" y="16.5227" width="0.870084" height="0.870084" fill="#D9D9D9"/>
<rect x="16.9326" y="16.5227" width="0.870084" height="0.870084" fill="#D9D9D9"/>
<rect x="18.2378" y="16.5226" width="0.870084" height="0.870084" fill="#D9D9D9"/>
<rect x="19.5425" y="16.5228" width="0.870084" height="0.870084" fill="#D9D9D9"/>
<rect x="20.8477" y="16.5227" width="0.870084" height="0.870084" fill="#D9D9D9"/>
<rect x="22.1528" y="16.5227" width="0.870084" height="0.870084" fill="#D9D9D9"/>
<rect x="23.458" y="16.5227" width="0.870084" height="0.870084" fill="#D9D9D9"/>
<rect x="24.7632" y="16.5227" width="0.870084" height="0.870084" fill="#D9D9D9"/>
<rect x="26.0684" y="16.5226" width="0.870084" height="0.870084" fill="#D9D9D9"/>
<rect x="27.3735" y="16.5227" width="0.870084" height="0.870084" fill="#D9D9D9"/>
<rect x="28.6787" y="16.5227" width="0.870084" height="0.870084" fill="#D9D9D9"/>
<rect x="-0.0339355" y="17.8277" width="0.870084" height="0.870084" fill="#D9D9D9"/>
<rect x="1.27124" y="17.8277" width="0.870084" height="0.870084" fill="#D9D9D9"/>
<rect x="2.57617" y="17.8278" width="0.870084" height="0.870084" fill="#D9D9D9"/>
<rect x="3.8811" y="17.8277" width="0.870084" height="0.870084" fill="#D9D9D9"/>
<rect x="5.18628" y="17.8277" width="0.870084" height="0.870084" fill="#D9D9D9"/>
<rect x="6.49146" y="17.8277" width="0.870084" height="0.870084" fill="#D9D9D9"/>
<rect x="7.79663" y="17.8277" width="0.870084" height="0.870084" fill="#D9D9D9"/>
<rect x="9.10205" y="17.8277" width="0.870084" height="0.870084" fill="#D9D9D9"/>
<rect x="10.4072" y="17.8278" width="0.870084" height="0.870084" fill="#D9D9D9"/>
<rect x="11.7119" y="17.8277" width="0.870084" height="0.870084" fill="#D9D9D9"/>
<rect x="13.0176" y="17.8275" width="0.870084" height="0.870084" fill="#D9D9D9"/>
<rect x="14.3223" y="17.8277" width="0.870084" height="0.870084" fill="#D9D9D9"/>
<rect x="15.6274" y="17.8277" width="0.870084" height="0.870084" fill="#D9D9D9"/>
<rect x="16.9326" y="17.8277" width="0.870084" height="0.870084" fill="#D9D9D9"/>
<rect x="18.2378" y="17.8278" width="0.870084" height="0.870084" fill="#D9D9D9"/>
<rect x="19.5425" y="17.8275" width="0.870084" height="0.870084" fill="#D9D9D9"/>
<rect x="20.8477" y="17.8277" width="0.870084" height="0.870084" fill="#D9D9D9"/>
<rect x="22.1528" y="17.8277" width="0.870084" height="0.870084" fill="#D9D9D9"/>
<rect x="23.458" y="17.8277" width="0.870084" height="0.870084" fill="#D9D9D9"/>
<rect x="24.7632" y="17.8277" width="0.870084" height="0.870084" fill="#D9D9D9"/>
<rect x="26.0684" y="17.8278" width="0.870084" height="0.870084" fill="#D9D9D9"/>
<rect x="27.3735" y="17.8277" width="0.870084" height="0.870084" fill="#D9D9D9"/>
<rect x="28.6787" y="17.8277" width="0.870084" height="0.870084" fill="#D9D9D9"/>
<rect x="-0.0339355" y="19.1329" width="0.870084" height="0.870084" fill="#D9D9D9"/>
<rect x="1.27124" y="19.1329" width="0.870084" height="0.870084" fill="#D9D9D9"/>
<rect x="2.57617" y="19.1329" width="0.870084" height="0.870084" fill="#D9D9D9"/>
<rect x="3.8811" y="19.1329" width="0.870084" height="0.870084" fill="#D9D9D9"/>
<rect x="5.18628" y="19.1329" width="0.870084" height="0.870084" fill="#D9D9D9"/>
<rect x="6.49146" y="19.1329" width="0.870084" height="0.870084" fill="#D9D9D9"/>
<rect x="7.79663" y="19.1329" width="0.870084" height="0.870084" fill="#D9D9D9"/>
<rect x="9.10205" y="19.1329" width="0.870084" height="0.870084" fill="#D9D9D9"/>
<rect x="10.4072" y="19.1329" width="0.870084" height="0.870084" fill="#D9D9D9"/>
<rect x="11.7119" y="19.1329" width="0.870084" height="0.870084" fill="#D9D9D9"/>
<rect x="13.0176" y="19.1329" width="0.870084" height="0.870084" fill="#D9D9D9"/>
<rect x="14.3223" y="19.1329" width="0.870084" height="0.870084" fill="#D9D9D9"/>
<rect x="15.6274" y="19.1329" width="0.870084" height="0.870084" fill="#D9D9D9"/>
<rect x="16.9326" y="19.1329" width="0.870084" height="0.870084" fill="#D9D9D9"/>
<rect x="18.2378" y="19.1329" width="0.870084" height="0.870084" fill="#D9D9D9"/>
<rect x="19.5425" y="19.1329" width="0.870084" height="0.870084" fill="#D9D9D9"/>
<rect x="20.8477" y="19.1329" width="0.870084" height="0.870084" fill="#D9D9D9"/>
<rect x="22.1528" y="19.1329" width="0.870084" height="0.870084" fill="#D9D9D9"/>
<rect x="23.458" y="19.1329" width="0.870084" height="0.870084" fill="#D9D9D9"/>
<rect x="24.7632" y="19.1329" width="0.870084" height="0.870084" fill="#D9D9D9"/>
<rect x="26.0684" y="19.1329" width="0.870084" height="0.870084" fill="#D9D9D9"/>
<rect x="27.3735" y="19.1329" width="0.870084" height="0.870084" fill="#D9D9D9"/>
<rect x="28.6787" y="19.1329" width="0.870084" height="0.870084" fill="#D9D9D9"/>
<rect x="-0.0339355" y="20.438" width="0.870084" height="0.870084" fill="#D9D9D9"/>
<rect x="1.27124" y="20.438" width="0.870084" height="0.870084" fill="#D9D9D9"/>
<rect x="2.57617" y="20.438" width="0.870084" height="0.870084" fill="#D9D9D9"/>
<rect x="3.8811" y="20.438" width="0.870084" height="0.870084" fill="#D9D9D9"/>
<rect x="5.18628" y="20.438" width="0.870084" height="0.870084" fill="#D9D9D9"/>
<rect x="6.49146" y="20.438" width="0.870084" height="0.870084" fill="#D9D9D9"/>
<rect x="7.79663" y="20.4379" width="0.870084" height="0.870084" fill="#D9D9D9"/>
<rect x="9.10205" y="20.438" width="0.870084" height="0.870084" fill="#D9D9D9"/>
<rect x="10.4072" y="20.438" width="0.870084" height="0.870084" fill="#D9D9D9"/>
<rect x="11.7119" y="20.438" width="0.870084" height="0.870084" fill="#D9D9D9"/>
<rect x="13.0176" y="20.438" width="0.870084" height="0.870084" fill="#D9D9D9"/>
<rect x="14.3223" y="20.438" width="0.870084" height="0.870084" fill="#D9D9D9"/>
<rect x="15.6274" y="20.438" width="0.870084" height="0.870084" fill="#D9D9D9"/>
<rect x="16.9326" y="20.438" width="0.870084" height="0.870084" fill="#D9D9D9"/>
<rect x="18.2378" y="20.438" width="0.870084" height="0.870084" fill="#D9D9D9"/>
<rect x="19.5425" y="20.438" width="0.870084" height="0.870084" fill="#D9D9D9"/>
<rect x="20.8477" y="20.438" width="0.870084" height="0.870084" fill="#D9D9D9"/>
<rect x="22.1528" y="20.438" width="0.870084" height="0.870084" fill="#D9D9D9"/>
<rect x="23.458" y="20.438" width="0.870084" height="0.870084" fill="#D9D9D9"/>
<rect x="24.7632" y="20.438" width="0.870084" height="0.870084" fill="#D9D9D9"/>
<rect x="26.0684" y="20.438" width="0.870084" height="0.870084" fill="#D9D9D9"/>
<rect x="27.3735" y="20.438" width="0.870084" height="0.870084" fill="#D9D9D9"/>
<rect x="28.6787" y="20.438" width="0.870084" height="0.870084" fill="#D9D9D9"/>
<rect x="-0.0339355" y="21.7431" width="0.870084" height="0.870084" fill="#D9D9D9"/>
<rect x="1.27124" y="21.7431" width="0.870084" height="0.870084" fill="#D9D9D9"/>
<rect x="2.57617" y="21.7432" width="0.870084" height="0.870084" fill="#D9D9D9"/>
<rect x="3.8811" y="21.7431" width="0.870084" height="0.870084" fill="#D9D9D9"/>
<rect x="5.18628" y="21.7431" width="0.870084" height="0.870084" fill="#D9D9D9"/>
<rect x="6.49146" y="21.7431" width="0.870084" height="0.870084" fill="#D9D9D9"/>
<rect x="7.79663" y="21.7431" width="0.870084" height="0.870084" fill="#D9D9D9"/>
<rect x="9.10205" y="21.7431" width="0.870084" height="0.870084" fill="#D9D9D9"/>
<rect x="10.4072" y="21.7432" width="0.870084" height="0.870084" fill="#D9D9D9"/>
<rect x="11.7119" y="21.7431" width="0.870084" height="0.870084" fill="#D9D9D9"/>
<rect x="13.0176" y="21.743" width="0.870084" height="0.870084" fill="#D9D9D9"/>
<rect x="14.3223" y="21.7431" width="0.870084" height="0.870084" fill="#D9D9D9"/>
<rect x="15.6274" y="21.7431" width="0.870084" height="0.870084" fill="#D9D9D9"/>
<rect x="16.9326" y="21.7431" width="0.870084" height="0.870084" fill="#D9D9D9"/>
<rect x="18.2378" y="21.7432" width="0.870084" height="0.870084" fill="#D9D9D9"/>
<rect x="19.5425" y="21.743" width="0.870084" height="0.870084" fill="#D9D9D9"/>
<rect x="20.8477" y="21.7431" width="0.870084" height="0.870084" fill="#D9D9D9"/>
<rect x="22.1528" y="21.7431" width="0.870084" height="0.870084" fill="#D9D9D9"/>
<rect x="23.458" y="21.7431" width="0.870084" height="0.870084" fill="#D9D9D9"/>
<rect x="24.7632" y="21.7431" width="0.870084" height="0.870084" fill="#D9D9D9"/>
<rect x="26.0684" y="21.7432" width="0.870084" height="0.870084" fill="#D9D9D9"/>
<rect x="27.3735" y="21.7431" width="0.870084" height="0.870084" fill="#D9D9D9"/>
<rect x="28.6787" y="21.7431" width="0.870084" height="0.870084" fill="#D9D9D9"/>
<rect x="-0.0339355" y="23.0482" width="0.870084" height="0.870084" fill="#D9D9D9"/>
<rect x="1.27124" y="23.0482" width="0.870084" height="0.870084" fill="#D9D9D9"/>
<rect x="2.57617" y="23.0483" width="0.870084" height="0.870084" fill="#D9D9D9"/>
<rect x="3.8811" y="23.0482" width="0.870084" height="0.870084" fill="#D9D9D9"/>
<rect x="5.18628" y="23.0482" width="0.870084" height="0.870084" fill="#D9D9D9"/>
<rect x="6.49146" y="23.0482" width="0.870084" height="0.870084" fill="#D9D9D9"/>
<rect x="7.79663" y="23.0482" width="0.870084" height="0.870084" fill="#D9D9D9"/>
<rect x="9.10205" y="23.0482" width="0.870084" height="0.870084" fill="#D9D9D9"/>
<rect x="10.4072" y="23.0483" width="0.870084" height="0.870084" fill="#D9D9D9"/>
<rect x="11.7119" y="23.0482" width="0.870084" height="0.870084" fill="#D9D9D9"/>
<rect x="13.0176" y="23.0481" width="0.870084" height="0.870084" fill="#D9D9D9"/>
<rect x="14.3223" y="23.0482" width="0.870084" height="0.870084" fill="#D9D9D9"/>
<rect x="15.6274" y="23.0482" width="0.870084" height="0.870084" fill="#D9D9D9"/>
<rect x="16.9326" y="23.0482" width="0.870084" height="0.870084" fill="#D9D9D9"/>
<rect x="18.2378" y="23.0483" width="0.870084" height="0.870084" fill="#D9D9D9"/>
<rect x="19.5425" y="23.0481" width="0.870084" height="0.870084" fill="#D9D9D9"/>
<rect x="20.8477" y="23.0482" width="0.870084" height="0.870084" fill="#D9D9D9"/>
<rect x="22.1528" y="23.0482" width="0.870084" height="0.870084" fill="#D9D9D9"/>
<rect x="23.458" y="23.0482" width="0.870084" height="0.870084" fill="#D9D9D9"/>
<rect x="24.7632" y="23.0482" width="0.870084" height="0.870084" fill="#D9D9D9"/>
<rect x="26.0684" y="23.0483" width="0.870084" height="0.870084" fill="#D9D9D9"/>
<rect x="27.3735" y="23.0482" width="0.870084" height="0.870084" fill="#D9D9D9"/>
<rect x="28.6787" y="23.0482" width="0.870084" height="0.870084" fill="#D9D9D9"/>
<rect x="-0.0339355" y="24.3534" width="0.870084" height="0.870084" fill="#D9D9D9"/>
<rect x="1.27124" y="24.3534" width="0.870084" height="0.870084" fill="#D9D9D9"/>
<rect x="2.57617" y="24.3534" width="0.870084" height="0.870084" fill="#D9D9D9"/>
<rect x="3.8811" y="24.3534" width="0.870084" height="0.870084" fill="#D9D9D9"/>
<rect x="5.18628" y="24.3534" width="0.870084" height="0.870084" fill="#D9D9D9"/>
<rect x="6.49146" y="24.3534" width="0.870084" height="0.870084" fill="#D9D9D9"/>
<rect x="7.79663" y="24.3533" width="0.870084" height="0.870084" fill="#D9D9D9"/>
<rect x="9.10205" y="24.3534" width="0.870084" height="0.870084" fill="#D9D9D9"/>
<rect x="10.4072" y="24.3534" width="0.870084" height="0.870084" fill="#D9D9D9"/>
<rect x="11.7119" y="24.3534" width="0.870084" height="0.870084" fill="#D9D9D9"/>
<rect x="13.0176" y="24.3534" width="0.870084" height="0.870084" fill="#D9D9D9"/>
<rect x="14.3223" y="24.3534" width="0.870084" height="0.870084" fill="#D9D9D9"/>
<rect x="15.6274" y="24.3534" width="0.870084" height="0.870084" fill="#D9D9D9"/>
<rect x="16.9326" y="24.3534" width="0.870084" height="0.870084" fill="#D9D9D9"/>
<rect x="18.2378" y="24.3534" width="0.870084" height="0.870084" fill="#D9D9D9"/>
<rect x="19.5425" y="24.3534" width="0.870084" height="0.870084" fill="#D9D9D9"/>
<rect x="20.8477" y="24.3534" width="0.870084" height="0.870084" fill="#D9D9D9"/>
<rect x="22.1528" y="24.3534" width="0.870084" height="0.870084" fill="#D9D9D9"/>
<rect x="23.458" y="24.3534" width="0.870084" height="0.870084" fill="#D9D9D9"/>
<rect x="24.7632" y="24.3534" width="0.870084" height="0.870084" fill="#D9D9D9"/>
<rect x="26.0684" y="24.3534" width="0.870084" height="0.870084" fill="#D9D9D9"/>
<rect x="27.3735" y="24.3534" width="0.870084" height="0.870084" fill="#D9D9D9"/>
<rect x="28.6787" y="24.3534" width="0.870084" height="0.870084" fill="#D9D9D9"/>
<rect x="-0.0339355" y="25.6585" width="0.870084" height="0.870084" fill="#D9D9D9"/>
<rect x="1.27124" y="25.6585" width="0.870084" height="0.870084" fill="#D9D9D9"/>
<rect x="2.57617" y="25.6585" width="0.870084" height="0.870084" fill="#D9D9D9"/>
<rect x="3.8811" y="25.6585" width="0.870084" height="0.870084" fill="#D9D9D9"/>
<rect x="5.18628" y="25.6585" width="0.870084" height="0.870084" fill="#D9D9D9"/>
<rect x="6.49146" y="25.6585" width="0.870084" height="0.870084" fill="#D9D9D9"/>
<rect x="7.79663" y="25.6585" width="0.870084" height="0.870084" fill="#D9D9D9"/>
<rect x="9.10205" y="25.6585" width="0.870084" height="0.870084" fill="#D9D9D9"/>
<rect x="10.4072" y="25.6585" width="0.870084" height="0.870084" fill="#D9D9D9"/>
<rect x="11.7119" y="25.6585" width="0.870084" height="0.870084" fill="#D9D9D9"/>
<rect x="13.0176" y="25.6586" width="0.870084" height="0.870084" fill="#D9D9D9"/>
<rect x="14.3223" y="25.6585" width="0.870084" height="0.870084" fill="#D9D9D9"/>
<rect x="15.6274" y="25.6585" width="0.870084" height="0.870084" fill="#D9D9D9"/>
<rect x="16.9326" y="25.6585" width="0.870084" height="0.870084" fill="#D9D9D9"/>
<rect x="18.2378" y="25.6585" width="0.870084" height="0.870084" fill="#D9D9D9"/>
<rect x="19.5425" y="25.6586" width="0.870084" height="0.870084" fill="#D9D9D9"/>
<rect x="20.8477" y="25.6585" width="0.870084" height="0.870084" fill="#D9D9D9"/>
<rect x="22.1528" y="25.6585" width="0.870084" height="0.870084" fill="#D9D9D9"/>
<rect x="23.458" y="25.6585" width="0.870084" height="0.870084" fill="#D9D9D9"/>
<rect x="24.7632" y="25.6585" width="0.870084" height="0.870084" fill="#D9D9D9"/>
<rect x="26.0684" y="25.6585" width="0.870084" height="0.870084" fill="#D9D9D9"/>
<rect x="27.3735" y="25.6585" width="0.870084" height="0.870084" fill="#D9D9D9"/>
<rect x="28.6787" y="25.6585" width="0.870084" height="0.870084" fill="#D9D9D9"/>
<rect x="-0.0339355" y="26.9637" width="0.870084" height="0.870084" fill="#D9D9D9"/>
<rect x="1.27124" y="26.9637" width="0.870084" height="0.870084" fill="#D9D9D9"/>
<rect x="2.57617" y="26.9637" width="0.870084" height="0.870084" fill="#D9D9D9"/>
<rect x="3.8811" y="26.9637" width="0.870084" height="0.870084" fill="#D9D9D9"/>
<rect x="5.18628" y="26.9637" width="0.870084" height="0.870084" fill="#D9D9D9"/>
<rect x="6.49146" y="26.9637" width="0.870084" height="0.870084" fill="#D9D9D9"/>
<rect x="7.79663" y="26.9637" width="0.870084" height="0.870084" fill="#D9D9D9"/>
<rect x="9.10205" y="26.9637" width="0.870084" height="0.870084" fill="#D9D9D9"/>
<rect x="10.4072" y="26.9637" width="0.870084" height="0.870084" fill="#D9D9D9"/>
<rect x="11.7119" y="26.9637" width="0.870084" height="0.870084" fill="#D9D9D9"/>
<rect x="13.0176" y="26.9635" width="0.870084" height="0.870084" fill="#D9D9D9"/>
<rect x="14.3223" y="26.9637" width="0.870084" height="0.870084" fill="#D9D9D9"/>
<rect x="15.6274" y="26.9637" width="0.870084" height="0.870084" fill="#D9D9D9"/>
<rect x="16.9326" y="26.9637" width="0.870084" height="0.870084" fill="#D9D9D9"/>
<rect x="18.2378" y="26.9637" width="0.870084" height="0.870084" fill="#D9D9D9"/>
<rect x="19.5425" y="26.9635" width="0.870084" height="0.870084" fill="#D9D9D9"/>
<rect x="20.8477" y="26.9637" width="0.870084" height="0.870084" fill="#D9D9D9"/>
<rect x="22.1528" y="26.9637" width="0.870084" height="0.870084" fill="#D9D9D9"/>
<rect x="23.458" y="26.9637" width="0.870084" height="0.870084" fill="#D9D9D9"/>
<rect x="24.7632" y="26.9637" width="0.870084" height="0.870084" fill="#D9D9D9"/>
<rect x="26.0684" y="26.9637" width="0.870084" height="0.870084" fill="#D9D9D9"/>
<rect x="27.3735" y="26.9637" width="0.870084" height="0.870084" fill="#D9D9D9"/>
<rect x="28.6787" y="26.9637" width="0.870084" height="0.870084" fill="#D9D9D9"/>
<rect x="-0.0339355" y="28.2688" width="0.870084" height="0.870084" fill="#D9D9D9"/>
<rect x="1.27124" y="28.2688" width="0.870084" height="0.870084" fill="#D9D9D9"/>
<rect x="2.57617" y="28.2688" width="0.870084" height="0.870084" fill="#D9D9D9"/>
<rect x="3.8811" y="28.2688" width="0.870084" height="0.870084" fill="#D9D9D9"/>
<rect x="5.18628" y="28.2688" width="0.870084" height="0.870084" fill="#D9D9D9"/>
<rect x="6.49146" y="28.2688" width="0.870084" height="0.870084" fill="#D9D9D9"/>
<rect x="7.79663" y="28.2688" width="0.870084" height="0.870084" fill="#D9D9D9"/>
<rect x="9.10205" y="28.2688" width="0.870084" height="0.870084" fill="#D9D9D9"/>
<rect x="10.4072" y="28.2688" width="0.870084" height="0.870084" fill="#D9D9D9"/>
<rect x="11.7119" y="28.2688" width="0.870084" height="0.870084" fill="#D9D9D9"/>
<rect x="13.0176" y="28.2687" width="0.870084" height="0.870084" fill="#D9D9D9"/>
<rect x="14.3223" y="28.2688" width="0.870084" height="0.870084" fill="#D9D9D9"/>
<rect x="15.6274" y="28.2688" width="0.870084" height="0.870084" fill="#D9D9D9"/>
<rect x="16.9326" y="28.2688" width="0.870084" height="0.870084" fill="#D9D9D9"/>
<rect x="18.2378" y="28.2688" width="0.870084" height="0.870084" fill="#D9D9D9"/>
<rect x="19.5425" y="28.2687" width="0.870084" height="0.870084" fill="#D9D9D9"/>
<rect x="20.8477" y="28.2688" width="0.870084" height="0.870084" fill="#D9D9D9"/>
<rect x="22.1528" y="28.2688" width="0.870084" height="0.870084" fill="#D9D9D9"/>
<rect x="23.458" y="28.2688" width="0.870084" height="0.870084" fill="#D9D9D9"/>
<rect x="24.7632" y="28.2688" width="0.870084" height="0.870084" fill="#D9D9D9"/>
<rect x="26.0684" y="28.2688" width="0.870084" height="0.870084" fill="#D9D9D9"/>
<rect x="27.3735" y="28.2688" width="0.870084" height="0.870084" fill="#D9D9D9"/>
<rect x="28.6787" y="28.2688" width="0.870084" height="0.870084" fill="#D9D9D9"/>
<rect x="-0.0339355" y="29.5739" width="0.870084" height="0.870084" fill="#D9D9D9"/>
<rect x="1.27124" y="29.5739" width="0.870084" height="0.870084" fill="#D9D9D9"/>
<rect x="2.57617" y="29.5739" width="0.870084" height="0.870084" fill="#D9D9D9"/>
<rect x="3.8811" y="29.5739" width="0.870084" height="0.870084" fill="#D9D9D9"/>
<rect x="5.18628" y="29.5739" width="0.870084" height="0.870084" fill="#D9D9D9"/>
<rect x="6.49146" y="29.5739" width="0.870084" height="0.870084" fill="#D9D9D9"/>
<rect x="7.79663" y="29.5739" width="0.870084" height="0.870084" fill="#D9D9D9"/>
<rect x="9.10205" y="29.5739" width="0.870084" height="0.870084" fill="#D9D9D9"/>
<rect x="10.4072" y="29.5739" width="0.870084" height="0.870084" fill="#D9D9D9"/>
<rect x="11.7119" y="29.5739" width="0.870084" height="0.870084" fill="#D9D9D9"/>
<rect x="13.0176" y="29.574" width="0.870084" height="0.870084" fill="#D9D9D9"/>
<rect x="14.3223" y="29.5739" width="0.870084" height="0.870084" fill="#D9D9D9"/>
<rect x="15.6274" y="29.5739" width="0.870084" height="0.870084" fill="#D9D9D9"/>
<rect x="16.9326" y="29.5739" width="0.870084" height="0.870084" fill="#D9D9D9"/>
<rect x="18.2378" y="29.5739" width="0.870084" height="0.870084" fill="#D9D9D9"/>
<rect x="19.5425" y="29.574" width="0.870084" height="0.870084" fill="#D9D9D9"/>
<rect x="20.8477" y="29.5739" width="0.870084" height="0.870084" fill="#D9D9D9"/>
<rect x="22.1528" y="29.5739" width="0.870084" height="0.870084" fill="#D9D9D9"/>
<rect x="23.458" y="29.5739" width="0.870084" height="0.870084" fill="#D9D9D9"/>
<rect x="24.7632" y="29.5739" width="0.870084" height="0.870084" fill="#D9D9D9"/>
<rect x="26.0684" y="29.5739" width="0.870084" height="0.870084" fill="#D9D9D9"/>
<rect x="27.3735" y="29.5739" width="0.870084" height="0.870084" fill="#D9D9D9"/>
<rect x="28.6787" y="29.5739" width="0.870084" height="0.870084" fill="#D9D9D9"/>
</mask>
<g mask="url(#mask0_2287_628)">
<path d="M17.1294 27.9992H4.69827V3.02661C4.69393 2.8932 4.71993 2.76038 4.77472 2.636C4.82951 2.51162 4.91198 2.39822 5.01726 2.3025C5.12253 2.20678 5.24846 2.13069 5.38761 2.07873C5.52675 2.02677 5.67627 2 5.82733 2C5.97839 2 6.12792 2.02677 6.26706 2.07873C6.40621 2.13069 6.53214 2.20678 6.63741 2.3025C6.74268 2.39822 6.82516 2.51162 6.87995 2.636C6.93474 2.76038 6.96073 2.8932 6.9564 3.02661V26.0016H17.1294C17.4238 26.0089 17.7034 26.1174 17.9087 26.304C18.114 26.4906 18.2289 26.7406 18.2289 27.0008C18.2289 27.261 18.114 27.511 17.9087 27.6976C17.7034 27.8842 17.4238 27.9927 17.1294 28V27.9992ZM5.82318 27.9992H3.59712C3.30328 27.9918 3.02431 27.8834 2.81945 27.6971C2.6146 27.5109 2.5 27.2614 2.5 27.0016C2.5 26.7419 2.6146 26.4924 2.81945 26.3062C3.02431 26.1199 3.30328 26.0115 3.59712 26.0041H5.82318C6.11702 26.0115 6.39599 26.1199 6.60085 26.3062C6.8057 26.4924 6.9203 26.7419 6.9203 27.0016C6.9203 27.2614 6.8057 27.5109 6.60085 27.6971C6.39599 27.8834 6.11702 27.9918 5.82318 27.9992Z" fill="#111111"/>
<path d="M8.0437 3.30191C9.60984 2.51334 11.3721 2.07859 13.1741 2.03623C14.976 1.99387 16.762 2.34522 18.3734 3.0591C23.4494 5.30187 26.7747 3.92918 28.4997 3.56736V18.1807C28.4997 18.1807 24.2106 20.4859 18.3734 17.9856C16.7816 17.2428 15.0087 16.8546 13.2085 16.8546C11.4084 16.8546 9.63546 17.2428 8.0437 17.9856V3.30191Z" fill="#111111"/>
</g>
</g>
<defs>
<clipPath id="clip0_2287_628">
<rect width="30" height="30" fill="white"/>
</clipPath>
</defs>
</svg>
