<svg width="30" height="30" viewBox="0 0 30 30" fill="none" xmlns="http://www.w3.org/2000/svg">
<path d="M17.9463 13.3428C21.9955 13.4537 25.2501 16.7235 25.25 20.748V21.4131C25.2499 21.5446 25.2261 21.6702 25.1846 21.7861C25.0284 22.2215 24.6086 22.5322 24.1172 22.5322C23.6258 22.5322 23.206 22.2216 23.0498 21.7861C23.0083 21.6702 22.9844 21.5446 22.9844 21.4131V20.1016C22.9843 17.8581 21.3237 15.992 19.1406 15.6387L17.7383 18.0557L19.3184 23.2412L19.3193 23.2441L19.3369 23.3037L19.374 23.4307L19.2891 23.5332L19.2334 23.6006L18.04 25.041L17.793 25.3379L15.6904 27.8896L15.6895 27.8887C15.5381 28.1069 15.2857 28.2499 15 28.25C14.6963 28.25 14.4295 28.0891 14.2822 27.8467L11.959 25.041L10.71 23.5322L10.623 23.4277L10.6826 23.2393L12.2598 18.0566L10.8574 15.6387C8.67499 15.9925 7.01472 17.8586 7.01465 20.1016V21.4131C7.01459 21.5447 6.99073 21.6702 6.94922 21.7861C6.79306 22.2216 6.37319 22.5322 5.88184 22.5322C5.39054 22.532 4.97148 22.2213 4.81543 21.7861C4.7843 21.6992 4.76354 21.6069 4.75488 21.5107L4.75 21.4131V20.748C4.75 16.7234 8.00429 13.4535 12.0537 13.3428L12.2021 13.3389L12.2764 13.4678L13.21 15.0781H16.7891L17.3887 14.043L17.7979 13.3389L17.9463 13.3428ZM13.0234 22.9248L14.7588 25.0205L14.7627 25.0244L14.999 25.3232L15.2363 25.0244L15.2402 25.0205L16.6807 23.2822L16.9746 22.9248L15.4043 17.8965H14.5947L13.0234 22.9248ZM15 1.75C18.3831 1.75026 21.1318 4.4532 21.1318 7.79492C21.1317 11.1366 18.383 13.8396 15 13.8398C11.6168 13.8398 8.86734 11.1368 8.86719 7.79492C8.86719 4.45301 11.6167 1.75 15 1.75ZM15 3.98828C12.8603 3.98828 11.1318 5.69628 11.1318 7.79492L11.1367 7.99023C11.2401 9.99821 12.9271 11.6006 15 11.6006L15.1992 11.5957C17.2457 11.4934 18.867 9.82764 18.8672 7.79492C18.8672 5.76194 17.2457 4.0955 15.1992 3.99316L15 3.98828Z" fill="#EA0029"/>
</svg>
